HIERARCHY
ROOT reference
{
  OFFSET 0 0 0
  CHANNELS 6 Xposition Yposition Zposition Zrotation Xrotation Yrotation
  JOINT Hips
  {
    OFFSET 0 97.8064 0
    CHANNELS 6 Xposition Yposition Zposition Zrotation Xrotation Yrotation
    JOINT ToSpine
    {
      OFFSET -2.69724 7.43032 -0.144315
      CHANNELS 6 Xposition Yposition Zposition Zrotation Xrotation Yrotation
      JOINT Spine
      {
        OFFSET -0.0310711 10.7595 1.96963
        CHANNELS 6 Xposition Yposition Zposition Zrotation Xrotation Yrotation
        JOINT Spine1
        {
          OFFSET 13.1342 3.43533 0.764692
          CHANNELS 6 Xposition Yposition Zposition Zrotation Xrotation Yrotation
          JOINT Neck
          {
            OFFSET 29.8703 7.82586 -0.130764
            CHANNELS 6 Xposition Yposition Zposition Zrotation Xrotation Yrotation
            JOINT Head
            {
              OFFSET 9.52751 0.295786 -0.907742
              CHANNELS 6 Xposition Yposition Zposition Zrotation Xrotation Yrotation
              End Site
              {
                OFFSET 16.4037 0.713936 2.7358
              }
            }
          }
          JOINT LeftShoulder
          {
            OFFSET 27.5574 4.95586 2.47156
            CHANNELS 6 Xposition Yposition Zposition Zrotation Xrotation Yrotation
            JOINT LeftArm
            {
              OFFSET 1.20734 -0.998971 20.1238
              CHANNELS 6 Xposition Yposition Zposition Zrotation Xrotation Yrotation
              JOINT LeftForeArm
              {
                OFFSET 26.8049 -0.0536703 -0.155908
                CHANNELS 6 Xposition Yposition Zposition Zrotation Xrotation Yrotation
                JOINT LeftHand
                {
                  OFFSET 26.6817 0 0.320147
                  CHANNELS 6 Xposition Yposition Zposition Zrotation Xrotation Yrotation
                  End Site
                  {
                    OFFSET 18.6119 0 0.382219
                  }
                }
              }
            }
          }
          JOINT RightShoulder
          {
            OFFSET 27.5927 4.71444 -2.65209
            CHANNELS 6 Xposition Yposition Zposition Zrotation Xrotation Yrotation
            JOINT RightArm
            {
              OFFSET 2.83739 -1.17114 -18.7564
              CHANNELS 6 Xposition Yposition Zposition Zrotation Xrotation Yrotation
              JOINT RightForeArm
              {
                OFFSET 28.839 -0.0548439 1.22491
                CHANNELS 6 Xposition Yposition Zposition Zrotation Xrotation Yrotation
                JOINT RightHand
                {
                  OFFSET 26.5114 0 -0.101894
                  CHANNELS 6 Xposition Yposition Zposition Zrotation Xrotation Yrotation
                  End Site
                  {
                    OFFSET 18.2168 0 0
                  }
                }
              }
            }
          }
        }
      }
    }
    JOINT LeftUpLeg
    {
      OFFSET -4.76168 -1.9167 -10.2353
      CHANNELS 6 Xposition Yposition Zposition Zrotation Xrotation Yrotation
      JOINT LeftLeg
      {
        OFFSET 2.55951 -42.0585 -8.02213
        CHANNELS 6 Xposition Yposition Zposition Zrotation Xrotation Yrotation
        JOINT LeftFoot
        {
          OFFSET 3.16357 -42.5282 -3.95426
          CHANNELS 6 Xposition Yposition Zposition Zrotation Xrotation Yrotation
          JOINT LeftToeBase
          {
            OFFSET 0.346054 -6.02161 12.8035
            CHANNELS 6 Xposition Yposition Zposition Zrotation Xrotation Yrotation
            End Site
            {
              OFFSET 0.134235 -1.35082 5.13018
            }
          }
        }
      }
    }
    JOINT RightUpLeg
    {
      OFFSET -4.94151 -1.41743 10.6446
      CHANNELS 6 Xposition Yposition Zposition Zrotation Xrotation Yrotation
      JOINT RightLeg
      {
        OFFSET -2.56294 -42.0364 -7.94377
        CHANNELS 6 Xposition Yposition Zposition Zrotation Xrotation Yrotation
        JOINT RightFoot
        {
          OFFSET -3.0952 -42.555 -4.02241
          CHANNELS 6 Xposition Yposition Zposition Zrotation Xrotation Yrotation
          JOINT RightToeBase
          {
            OFFSET -0.0828122 -6.13587 12.8035
            CHANNELS 6 Xposition Yposition Zposition Zrotation Xrotation Yrotation
            End Site
            {
              OFFSET -0.131328 -1.35082 5.13018
            }
          }
        }
      }
    }
  }
}
MOTION
Frames:	6
Frame Time:	0.0333333
0 0 0 0 0 -0 12.2399 90.2705 -43.2694 75.0392 -45.1385 -5.71592 -2.69724 7.43032 -0.144315 -70.1915 -1.59028e-015 88.8779 -0.0310711 10.7595 1.96963 74.768 71.5244 6.50064 13.1342 3.43533 0.764692 2.1822 20.9626 1.0906 29.8703 7.82586 -0.130764 -120.632 25.4444 163.855 9.52751 0.295786 -0.907742 -178.154 68.1483 -158.344 27.5574 4.95586 2.47156 0.940512 -16.8347 -10.1287 1.20734 -0.998971 20.1238 -69.8232 17.0808 -176.833 26.8049 -0.0536703 -0.155908 33.1118 6.00713 -80.2304 26.6817 -2.84217e-014 0.320147 -0.122277 0.0141408 1.52625 27.5927 4.71444 -2.65209 -0.444991 9.43246 17.9295 2.83739 -1.17114 -18.7564 -101.577 -22.191 124.161 28.839 -0.0548439 1.22491 56.1602 5.24082 93.2447 26.5114 1.42109e-014 -0.101894 0.317648 -0.00376424 -0.582416 -4.76168 -1.9167 -10.2353 -52.4883 14.6033 96.6399 2.55951 -42.0585 -8.02213 -5.29685 56.9571 -6.88266 3.16357 -42.5282 -3.95426 0.999579 -24.4342 -1.98989 0.346054 -6.02161 12.8035 5.1974 -13.3015 17.5697 -4.94151 -1.41743 10.6446 -39.9616 -10.6056 85.4568 -2.56294 -42.0364 -7.94377 1.79614 37.9921 2.19927 -3.0952 -42.555 -4.02241 -6.43709 3.89072 0.898888 -0.0828122 -6.13587 12.8035 1.61477 -9.95439 -5.43157 
0 0 0 0 0 -0 11.997 90.3018 -42.6002 74.6013 -44.1914 -5.62362 -2.69724 7.43032 -0.144315 -70.1915 -7.95139e-016 88.8779 -0.0310711 10.7595 1.96963 73.5868 71.7323 7.60628 13.1342 3.43533 0.764692 2.8652 21.3715 1.05351 29.8703 7.82586 -0.130764 -121.478 26.1374 162.889 9.52751 0.295786 -0.907742 -179.088 69.0041 -158.266 27.5574 4.95586 2.47156 0.780446 -16.781 -12.9864 1.20734 -0.998971 20.1238 -67.9007 15.693 -171.865 26.8049 -0.0536703 -0.155908 31.1001 3.71301 -83.2202 26.6817 0 0.320147 -0.457888 0.0141361 2.1162 27.5927 4.71444 -2.65209 -0.870517 9.12697 23.2497 2.83739 -1.17114 -18.7564 -103.174 -18.8357 118.904 28.839 -0.0548439 1.22491 48.4201 3.60173 92.9458 26.5114 2.84217e-014 -0.101894 0.641468 -0.00284317 -0.245363 -4.76168 -1.9167 -10.2353 -51.97 14.9066 95.6704 2.55951 -42.0585 -8.02213 -5.22883 56.6741 -6.93893 3.16357 -42.5282 -3.95426 1.09414 -24.304 -1.97127 0.346054 -6.02161 12.8035 5.00781 -13.0125 17.422 -4.94151 -1.41743 10.6446 -39.9679 -10.448 86.5685 -2.56294 -42.0364 -7.94377 1.74343 36.2205 2.53856 -3.0952 -42.555 -4.02241 -6.12679 3.35373 0.861536 -0.0828122 -6.13587 12.8035 1.59212 -9.45756 -5.62927 
0 0 0 0 0 -0 11.7317 90.2922 -41.7979 74.5882 -43.5611 -5.57806 -2.69724 7.43032 -0.144315 -70.1915 -4.77083e-015 88.8779 -0.0310711 10.7595 1.96963 73.3929 72.2408 7.50044 13.1342 3.43533 0.764692 3.58653 21.8828 1.39967 29.8703 7.82586 -0.130764 -123.195 27.0798 162.602 9.52751 0.295786 -0.907742 179.04 69.7568 -156.963 27.5574 4.95586 2.47156 0.576 -16.9187 -16.3619 1.20734 -0.998971 20.1238 -66.6789 14.526 -166.032 26.8049 -0.0536703 -0.155908 29.5425 1.61412 -86.0813 26.6817 -2.84217e-014 0.320147 -0.948973 0.014126 3.03279 27.5927 4.71444 -2.65209 -1.27141 9.05812 27.9802 2.83739 -1.17114 -18.7564 -105.298 -15.2135 113.638 28.839 -0.0548439 1.22491 42.3083 2.12277 91.9982 26.5114 4.26326e-014 -0.101894 0.870379 0.00248884 0.136679 -4.76168 -1.9167 -10.2353 -52.0855 14.9288 94.9105 2.55951 -42.0585 -8.02213 -5.15988 56.2903 -7.13368 3.16357 -42.5282 -3.95426 0.87156 -24.2284 -1.98561 0.346054 -6.02161 12.8035 4.86947 -12.8536 17.8237 -4.94151 -1.41743 10.6446 -40.3102 -10.7984 87.2993 -2.56294 -42.0364 -7.94377 1.43823 33.4067 2.73205 -3.0952 -42.555 -4.02241 -7.09791 4.01949 1.00327 -0.0828122 -6.13587 12.8035 1.50907 -9.42288 -4.68987 
0 0 0 0 0 -0 11.482 90.1971 -40.8088 74.1767 -43.0943 -5.75983 -2.69724 7.43032 -0.144315 -70.1915 0 88.8779 -0.0310711 10.7595 1.96963 73.3435 72.5963 7.98712 13.1342 3.43533 0.764692 4.29486 22.422 1.28966 29.8703 7.82586 -0.130764 -124.459 27.9901 162.546 9.52751 0.295786 -0.907742 176.21 70.3631 -154.214 27.5574 4.95586 2.47156 0.463678 -16.5761 -18.8604 1.20734 -0.998971 20.1238 -65.2071 14.1469 -160.37 26.8049 -0.0536703 -0.155908 28.8817 0.718179 -89.0189 26.6817 -2.84217e-014 0.320147 -1.27716 0.0141166 3.67883 27.5927 4.71444 -2.65209 -1.53573 8.69005 31.8595 2.83739 -1.17114 -18.7564 -106.845 -11.8408 109.478 28.839 -0.0548439 1.22491 38.5001 0.233871 90.2343 26.5114 4.26326e-014 -0.101894 1.16347 0.0111582 0.635546 -4.76168 -1.9167 -10.2353 -51.8871 15.3487 94.3627 2.55951 -42.0585 -8.02213 -5.10086 56.0678 -7.15469 3.16357 -42.5282 -3.95426 0.896411 -23.8587 -1.95473 0.346054 -6.02161 12.8035 5.11493 -13.2342 18.116 -4.94151 -1.41743 10.6446 -40.229 -11.4473 86.8823 -2.56294 -42.0364 -7.94377 0.690521 30.3564 4.85305 -3.0952 -42.555 -4.02241 -6.57837 3.9594 0.91971 -0.0828122 -6.13587 12.8035 1.40795 -6.74625 -5.75123 
0 0 0 0 0 -0 11.2682 90.0837 -39.5661 73.8398 -42.2494 -5.98928 -2.69724 7.43032 -0.144315 -70.1915 -3.18055e-015 88.8779 -0.0310711 10.7595 1.96963 75.8269 72.7956 5.81118 13.1342 3.43533 0.764692 3.99363 22.5985 1.33611 29.8703 7.82586 -0.130764 -125.687 28.8842 162.365 9.52751 0.295786 -0.907742 174.319 71.0634 -153.076 27.5574 4.95586 2.47156 0.471893 -15.8892 -20.1012 1.20734 -0.998971 20.1238 -63.6459 14.8059 -155.732 26.8049 -0.0536703 -0.155908 28.1069 -0.63862 -89.9379 26.6817 -2.84217e-014 0.320147 -1.4183 0.0141109 4.02468 27.5927 4.71444 -2.65209 -1.80017 8.42726 35.6394 2.83739 -1.17114 -18.7564 -108.407 -8.11326 106.157 28.839 -0.0548439 1.22491 34.6311 -1.22532 87.8801 26.5114 2.84217e-014 -0.101894 1.20369 0.0158195 0.906602 -4.76168 -1.9167 -10.2353 -51.8195 15.5371 93.5069 2.55951 -42.0585 -8.02213 -5.13549 55.8064 -7.85848 3.16357 -42.5282 -3.95426 0.39082 -23.9419 -2.00508 0.346054 -6.02161 12.8035 4.94285 -13.0839 19.0812 -4.94151 -1.41743 10.6446 -40.4321 -12.9339 84.7963 -2.56294 -42.0364 -7.94377 -0.275693 26.8416 7.1348 -3.0952 -42.555 -4.02241 -6.74341 4.36168 0.938778 -0.0828122 -6.13587 12.8035 1.42301 -7.63554 -5.23559 
0 0 0 0 0 -0 11.1391 90.0181 -38.0218 73.5685 -40.6866 -5.84645 -2.69724 7.43032 -0.144315 -70.1915 -4.77083e-015 88.8779 -0.0310711 10.7595 1.96963 75.4131 72.884 6.03968 13.1342 3.43533 0.764692 4.58051 22.4947 2.40472 29.8703 7.82586 -0.130764 -126.579 29.8607 161.625 9.52751 0.295786 -0.907742 173.607 72.0651 -152.315 27.5574 4.95586 2.47156 0.413531 -15.9253 -21.2108 1.20734 -0.998971 20.1238 -62.4882 15.822 -152.414 26.8049 -0.0536703 -0.155908 26.9318 -0.74201 -90.8756 26.6817 -2.84217e-014 0.320147 -1.41824 0.0141085 4.16316 27.5927 4.71444 -2.65209 -1.84789 8.01854 37.3663 2.83739 -1.17114 -18.7564 -110.016 -5.61508 102.951 28.839 -0.0548439 1.22491 33.3337 -2.72653 85.6784 26.5114 4.26326e-014 -0.101894 1.30578 0.0210309 1.14201 -4.76168 -1.9167 -10.2353 -51.6292 15.8583 92.1575 2.55951 -42.0585 -8.02213 -5.06268 55.2986 -8.2874 3.16357 -42.5282 -3.95426 0.454905 -23.3836 -1.95313 0.346054 -6.02161 12.8035 5.14201 -13.3968 19.4524 -4.94151 -1.41743 10.6446 -41.0204 -14.5381 82.695 -2.56294 -42.0364 -7.94377 -0.827576 23.786 8.60892 -3.0952 -42.555 -4.02241 -6.53968 2.93585 0.935604 -0.0828122 -6.13587 12.8035 1.58887 -8.00921 -6.82425 
